<svg xmlns="http://www.w3.org/2000/svg" viewBox="0 0 64 64"><rect width="64" height="64" rx="14" fill="#0B0B0C"/><g fill="#D4FF3A" transform="translate(8.84 45.41) scale(0.03724 -0.03724)"><path d="M134.49981689453125 0V106.9990234375H277.7498474121094Q340.7500915527344 106.9990234375 383.45863342285156 136.7908172607422Q426.16717529296875 166.58261108398438 447.95896911621094 223.9578399658203Q469.7507629394531 281.33306884765625 469.7507629394531 364Q469.7507629394531 445.2502746582031 448.20896911621094 500.5838317871094Q426.66717529296875 555.9173889160156 384.00030517578125 584.4591827392578Q341.33343505859375 613.0009765625 277.7498474121094 613.0009765625H140.33294677734375V720H277.7498474121094Q378.49969482421875 720 452.70790100097656 677.8749847412109Q526.9161071777344 635.7499694824219 567.3327026367188 555.5416412353516Q607.7492980957031 475.33331298828125 607.7492980957031 362Q607.7492980957031 248.66668701171875 566.8327026367188 167.45835876464844Q525.9161071777344 86.25003051757812 452.20790100097656 43.12501525878906Q378.49969482421875 0 278.7498474121094 0ZM54.667236328125 0V720H190.665771484375V0Z"/><path transform="translate(600.0 0)" d="M222.33392333984375 0 20.000244140625 720H159.41543579101562L315.3331298828125 98.58200073242188H301.83294677734375L457.66729736328125 720H588.8325805664062L386.4989013671875 0Z"/></g></svg>